<?xml version="1.0" encoding="utf-8"?>
<!-- Generator: Adobe Illustrator 22.1.0, SVG Export Plug-In . SVG Version: 6.00 Build 0)  -->
<svg version="1.1" id="Ebene_1" xmlns="http://www.w3.org/2000/svg" xmlns:xlink="http://www.w3.org/1999/xlink" x="0px" y="0px"
	 viewBox="0 0 983.6 695.5" style="enable-background:new 0 0 983.6 695.5;" xml:space="preserve">
<style type="text/css">
	.st0{fill:none;stroke:#063F63;stroke-width:1.1214;stroke-linecap:round;stroke-linejoin:round;stroke-miterlimit:10;}
	.st1{fill:#063F63;}
	.st2{fill:#C6C6C5;}
	.st3{fill:#FFFFFF;}
</style>
<g>
	<line class="st0" x1="696.7" y1="173.7" x2="698.6" y2="228"/>
	<line class="st0" x1="696.7" y1="173.7" x2="566.3" y2="228"/>
	<line class="st0" x1="861.8" y1="242.3" x2="770.6" y2="188.6"/>
	<polyline class="st0" points="695.2,390.3 623.7,316.2 710.4,316.2 	"/>
	<line class="st0" x1="559" y1="291.1" x2="625.1" y2="316.2"/>
	<polygon class="st0" points="861.8,309.9 861.8,242.3 815.3,248.2 770.6,188.6 696.7,173.7 625.1,221.4 566.3,228 559,291.1 
		626,221.8 625.4,315.8 656.6,267.3 698.6,228 755.1,264.3 788.9,341.5 	"/>
	<polyline class="st0" points="755.1,264.3 815.3,248.2 788.9,341.5 696.7,390.3 710.4,316.2 656.1,268.5 755.1,264.3 	"/>
	<line class="st0" x1="861.8" y1="309.9" x2="815.3" y2="248.2"/>
	<polyline class="st0" points="656.1,268.5 625.1,221.4 698.6,228 770.6,188.6 	"/>
	<polyline class="st0" points="788.9,341.5 710.4,316.2 755.1,264.3 	"/>
</g>
<g>
	<path class="st1" d="M576.7,228.6c0,5.8-4.7,10.4-10.4,10.4c-5.8,0-10.4-4.7-10.4-10.4c0-5.8,4.7-10.4,10.4-10.4
		C572,218.1,576.7,222.8,576.7,228.6z"/>
	
		<ellipse transform="matrix(0.1907 -0.9817 0.9817 0.1907 459.7419 1042.0646)" class="st1" cx="861.9" cy="242.2" rx="10.4" ry="10.4"/>
	<circle class="st1" cx="698.6" cy="227.9" r="20.4"/>
	<path class="st1" d="M777.1,182.1c3.6,3.6,3.6,9.5,0,13.1s-9.5,3.6-13.1,0s-3.6-9.5,0-13.1C767.6,178.4,773.5,178.4,777.1,182.1z"
		/>
	<path class="st1" d="M632.8,215c3.6,3.6,3.6,9.5,0,13.1s-9.5,3.6-13.1,0s-3.6-9.5,0-13.1S629.2,211.4,632.8,215z"/>
	<path class="st1" d="M805.1,325.5c8.9,8.9,8.9,23.3,0,32.2c-8.9,8.9-23.3,8.9-32.2,0s-8.9-23.3,0-32.2
		C781.8,316.6,796.2,316.6,805.1,325.5z"/>
</g>
<path class="st1" d="M227.6,347.5c17.9,0,30.8,6.2,42.8,16.5c1.4,1.4,1.6,3.5,0.2,5c-1.6,1.6-3.5,3.4-5,5c-1.6,1.8-2.7,1.6-4.6-0.2
	c-9-8-21.8-13.8-33.6-13.8c-28,0-49.2,23.4-49.2,50.8c0,27.3,21.2,51.1,49.2,51.1c19.5,0,31.8-7.4,31.8-7.4v-24.8h-20.3
	c-1.9,0-3.4-1.4-3.4-3.2v-6.6c0-1.9,1.4-3.4,3.4-3.4h30.6c1.8,0,3.2,1.6,3.2,3.4v40.5c0,0.9-0.7,2.3-1.4,2.8c0,0-18,11.7-43.7,11.7
	c-35.4,0-63.9-28.1-63.9-63.5C163.7,376,192.2,347.5,227.6,347.5z"/>
<path class="st1" d="M325.2,400.6c18.6,0,32,13.8,32,32.4c0,1.2-0.2,3.5-0.4,4.8c-0.2,1.8-1.6,3-3.2,3h-51c0.7,11.9,11.2,23,23.7,23
	c7.4,0,13.5-2.8,17.5-5.3c2.5-1.4,3.5-2.3,5-0.4c1.1,1.4,1.9,2.7,3,4.1c1.2,1.6,1.9,2.7-0.7,4.6c-4.2,3.4-13.8,8.1-26,8.1
	c-21.4,0-34.7-16.8-34.7-37.2C290.5,417.7,303.7,400.6,325.2,400.6z M345,430.8c-0.5-10.3-9-19.5-19.8-19.5
	c-11.9,0-21.1,8.5-22.3,19.5H345z"/>
<path class="st1" d="M377.8,352.6c0-1.8,1.4-3.4,3.4-3.4H427c21.2,0,38.6,16.6,38.6,37.7c0,16.3-10.8,29.9-26.2,36.1l24.2,44.9
	c1.2,2.3,0,5.1-3,5.1h-9c-1.6,0-2.5-0.9-2.8-1.6l-23.5-46.9h-33.8v45.1c0,1.8-1.6,3.4-3.4,3.4h-6.9c-1.9,0-3.4-1.6-3.4-3.4
	L377.8,352.6L377.8,352.6z M426.1,413c13.6,0,25.5-11.3,25.5-25.8c0-13.4-11.9-25-25.5-25h-34.3V413H426.1z"/>
<path class="st1" d="M487.3,352.6c0-1.8,1.4-3.4,3.2-3.4h39.6c34.2,0,62.1,27.8,62.1,61.8c0,34.3-28,62.1-62.1,62.1h-39.6
	c-1.8,0-3.2-1.6-3.2-3.4L487.3,352.6L487.3,352.6z M527.3,460.9c29,0,50.1-20.7,50.1-49.9c0-29-21.1-49.7-50.1-49.7h-26.5v99.6
	H527.3z"/>
<path class="st1" d="M618,352.6c0-1.8,1.6-3.4,3.4-3.4h7.1c1.8,0,3.4,1.6,3.4,3.4v117.1c0,1.8-1.6,3.4-3.4,3.4h-7.1
	c-1.8,0-3.4-1.6-3.4-3.4V352.6z"/>
<rect x="379.4" y="491" class="st2" width="251.9" height="102"/>
<g>
	<path class="st3" d="M404.7,552.4l-5.6,17h-7.2l18.4-54.1h8.4l18.4,54.1h-7.5l-5.8-17H404.7z M422.4,547l-5.3-15.6
		c-1.2-3.5-2-6.7-2.8-9.9h-0.2c-0.8,3.2-1.7,6.5-2.7,9.8l-5.3,15.6H422.4z"/>
	<path class="st3" d="M445,515.4h7v48.2h23.1v5.9H445V515.4z"/>
	<path class="st3" d="M482.9,516c3.4-0.6,7.8-1,13.4-1c6.9,0,11.9,1.6,15.2,4.5c3,2.6,4.7,6.5,4.7,11.3c0,4.9-1.4,8.7-4.2,11.5
		c-3.7,3.9-9.7,5.9-16.5,5.9c-2.1,0-4-0.1-5.6-0.5v21.7h-7V516z M489.9,542.1c1.5,0.4,3.4,0.6,5.8,0.6c8.4,0,13.6-4.1,13.6-11.5
		c0-7.1-5.1-10.6-12.8-10.6c-3,0-5.4,0.2-6.6,0.6V542.1z"/>
	<path class="st3" d="M532.5,515.4V538h26.1v-22.6h7.1v54.1h-7.1v-25.3h-26.1v25.3h-7v-54.1H532.5z"/>
	<path class="st3" d="M586.6,552.4l-5.6,17h-7.2l18.4-54.1h8.4l18.4,54.1h-7.5l-5.8-17H586.6z M604.3,547l-5.3-15.6
		c-1.2-3.5-2-6.7-2.8-9.9H596c-0.8,3.2-1.7,6.5-2.7,9.8L588,547H604.3z"/>
</g>
</svg>
